<svg xmlns="http://www.w3.org/2000/svg" version="1.1" xmlns:xlink="http://www.w3.org/1999/xlink" xmlns:svgjs="http://svgjs.com/svgjs" height="169.31876220703126" width="256.5199890136719"><defs id="SvgjsDefs4079"></defs><g id="SvgjsG4080" rel="mainfill" name="main_text" xmlns:name="main_text" transform="translate(-2.5299999713897705,-102.60750732421874)" fill="#ed8c2b" stroke="none" stroke-width="1px"><path d="M18.87 220.34C17.16 220.34 15.45 220.34 13.73 220.34L13.73 227.47L7.67 227.47L7.67 220.34C5.95 220.34 4.21 220.34 2.53 220.34L2.53 240C4.21 240 5.95 240 7.67 240L7.67 232.11L13.73 232.11L13.73 240C15.45 240 17.16 240 18.87 240ZM4.91 238.09L4.91 222.22L5.22 222.22L5.22 229.64L16.18 229.64L16.18 222.22L16.46 222.22L16.46 238.09L16.18 238.09L16.18 229.97L5.22 229.97L5.22 238.09ZM27.13 237.67L27.13 222.70L24.40 222.70L24.40 222.42C26.29 222.42 28.22 222.42 30.11 222.42L30.11 222.70L27.41 222.70L27.41 237.67L30.33 237.67L30.33 237.95C28.28 237.95 26.23 237.95 24.15 237.95L24.15 237.67ZM29.74 235.59L29.74 224.72L32.04 224.72C32.04 223.04 32.04 222.00 32.04 220.34C28.84 220.34 25.67 220.34 22.47 220.34C22.47 222.00 22.47 223.04 22.47 224.72L24.77 224.72L24.77 235.59L22.27 235.59C22.27 237.25 22.27 238.29 22.27 240C25.61 240 28.90 240 32.24 240C32.24 238.29 32.24 237.25 32.24 235.59ZM39.01 233.99C37.30 233.99 35.83 233.99 34.15 233.99C34.04 242.64 50.05 242.42 50.05 234.16C50.05 229.24 46.23 228.74 42.32 228.32C40.55 228.12 39.09 227.81 39.21 226.32C39.37 223.99 44.65 223.77 44.65 226.38C46.37 226.38 47.66 226.38 49.43 226.38C49.54 217.90 34.26 217.90 34.43 226.38C34.49 230.65 37.30 232.11 41.56 232.42C43.53 232.53 45.16 232.75 45.16 234.13C45.16 236.43 39.01 236.49 39.01 233.99ZM46.39 224.58C44.29 221.07 36.96 221.97 36.99 226.38C36.99 229.52 39.26 229.97 42.01 230.17C44.88 230.40 47.71 230.65 47.71 234.13C47.71 238.90 38.95 239.80 36.93 235.79L37.27 235.79C39.49 239.35 47.41 238.48 47.41 234.13C47.41 230.73 44.68 230.68 41.96 230.48C39.09 230.25 36.73 229.75 36.65 226.38C36.54 221.63 44.65 220.62 46.76 224.58ZM56.62 224.83L56.62 240C58.27 240 59.93 240 61.59 240L61.59 224.83L66.39 224.83C66.39 223.32 66.39 221.83 66.39 220.34L51.79 220.34C51.79 221.83 51.79 223.32 51.79 224.83ZM58.98 238.12L58.98 222.70L53.67 222.70L53.67 222.45L64.48 222.45L64.48 222.70L59.20 222.70C59.23 227.84 59.26 232.95 59.26 238.12ZM70.77 230.20C70.77 219.67 86.02 219.64 86.02 230.20C86.02 240.76 70.77 240.76 70.77 230.20ZM88.46 230.20C88.46 216.61 68.30 216.61 68.30 230.20C68.30 243.82 88.46 243.82 88.46 230.20ZM73.47 230.20C73.47 237.33 83.32 237.33 83.32 230.20C83.32 223.12 73.47 223.12 73.47 230.20ZM85.74 230.20C85.74 240.28 71.05 240.48 71.05 230.20C71.05 219.95 85.74 220.14 85.74 230.20ZM100.88 222.73L94.84 222.73L94.84 231.80L100.88 231.80C106.80 231.80 106.72 222.73 100.88 222.73ZM94.84 232.11L94.84 238.12L94.56 238.12L94.56 222.48L100.88 222.48C106.89 222.48 107.06 231.15 101.75 232.02L102.59 233.51L105.43 238.15L105.09 238.15L101.44 232.08C101.27 232.08 101.07 232.11 100.88 232.11ZM105.01 233.04C109.98 229.67 108.57 220.37 100.85 220.34C97.98 220.34 95.06 220.34 92.23 220.34C92.23 226.91 92.23 233.46 92.23 240C93.86 240 95.57 240 97.25 240L97.25 234.21L99.87 234.21L103.24 240L108.85 240L108.85 239.27ZM100.85 229.69L97.25 229.69C97.25 228.12 97.25 226.44 97.25 224.83C98.43 224.83 99.67 224.81 100.85 224.83C103.71 224.86 103.57 229.69 100.85 229.69ZM115.12 237.67L115.12 222.70L112.39 222.70L112.39 222.42C114.27 222.42 116.21 222.42 118.09 222.42L118.09 222.70L115.40 222.70L115.40 237.67L118.32 237.67L118.32 237.95C116.27 237.95 114.22 237.95 112.14 237.95L112.14 237.67ZM117.73 235.59L117.73 224.72L120.03 224.72C120.03 223.04 120.03 222.00 120.03 220.34C116.83 220.34 113.66 220.34 110.45 220.34C110.45 222.00 110.45 223.04 110.45 224.72L112.76 224.72L112.76 235.59L110.26 235.59C110.26 237.25 110.26 238.29 110.26 240C113.60 240 116.88 240 120.23 240C120.23 238.29 120.23 237.25 120.23 235.59ZM122.33 230.17C122.36 236.85 127.42 240.22 132.42 240.20C136.60 240.20 141.01 238.01 141.74 232.45C140.03 232.45 138.48 232.45 136.80 232.45C136.26 234.55 134.55 235.62 132.42 235.62C129.44 235.59 127.53 233.06 127.53 230.17C127.53 226.91 129.47 224.69 132.42 224.69C134.52 224.69 136.01 225.59 136.71 227.59C138.43 227.59 139.94 227.59 141.65 227.59C140.90 222.34 136.49 220.12 132.42 220.12C127.42 220.12 122.36 223.49 122.33 230.17ZM138.76 234.21C137.58 236.69 135.11 238.03 132.42 238.03C128.62 238.06 124.80 235.25 124.80 230.17C124.80 225.06 128.62 222.28 132.42 222.28C135.06 222.28 137.36 223.46 138.65 225.79L138.31 225.79C137.08 223.60 134.94 222.53 132.42 222.53C128.79 222.53 125.09 225.26 125.09 230.17C125.09 235.06 128.79 237.75 132.42 237.75C135.03 237.75 137.19 236.60 138.43 234.21ZM153.03 223.57L153.06 223.57L158.39 235.00L147.75 235.00ZM158.08 240L163.00 240L163.00 239.27L154.12 220.09L151.96 220.09L143.12 239.27L143.12 240L148.03 240L149.18 237.53L156.93 237.53ZM160.16 238.09L159.80 238.09L158.51 235.31L147.64 235.31L146.32 238.09L145.95 238.09L152.94 222.95L153.11 222.95ZM153.03 228.49L151.01 233.01L155.11 233.01ZM170.61 220.34C168.90 220.34 167.24 220.34 165.55 220.34L165.55 240C169.54 240 173.70 240 177.74 240C177.74 238.31 177.74 237.16 177.74 235.48L170.61 235.48C170.61 227.11 170.61 230.51 170.61 220.34ZM175.83 237.87L167.94 237.87L167.94 222.25L168.25 222.25C168.25 235.20 168.25 222.42 168.25 237.61L175.83 237.61ZM196.33 220.34L188.92 220.34L188.92 240L196.33 240C209.14 239.94 209.14 220.40 196.33 220.34ZM191.36 222.45L196.28 222.45C206.05 222.45 206.05 237.89 196.28 237.89L191.36 237.89ZM196.28 237.58L191.62 237.58L191.62 222.73L196.28 222.73C205.71 222.78 205.71 237.56 196.28 237.58ZM193.95 235.42L196.33 235.42C202.60 235.42 202.60 224.92 196.33 224.92L193.95 224.92ZM217.37 235.76C215.91 235.76 214.36 234.97 214.36 233.37L214.36 220.34C212.79 220.34 211.19 220.34 209.62 220.34L209.62 233.46C209.62 237.78 213.35 240.28 217.37 240.28C221.41 240.28 225.12 237.78 225.12 233.46L225.12 220.34C223.55 220.34 221.95 220.34 220.35 220.34L220.35 233.37C220.35 234.97 218.83 235.76 217.37 235.76ZM217.37 238.17C214.56 238.17 211.81 236.43 211.81 233.37L211.81 222.22L212.12 222.22L212.12 233.37C212.12 236.29 214.70 237.87 217.37 237.87C220.04 237.87 222.62 236.29 222.62 233.37L222.62 222.22L222.93 222.22L222.93 233.37C222.93 236.43 220.18 238.17 217.37 238.17ZM232.39 222.42L240.40 222.42L240.40 222.70L232.70 222.70L232.70 229.69L239.84 229.69L239.84 229.97L232.70 229.97C232.70 232.53 232.70 235.09 232.70 237.64L240.65 237.64L240.65 237.92L232.39 237.92C232.39 232.73 232.39 227.56 232.39 222.42ZM242.31 220.34C237.70 220.34 234.58 220.34 230.03 220.34C230.03 226.86 230.03 233.43 230.03 240C234.58 240 237.95 240 242.56 240C242.56 238.51 242.56 237.00 242.56 235.53C239.61 235.53 237.93 235.53 235.03 235.53C235.03 234.36 235.03 233.23 235.03 232.08L241.72 232.08C241.72 230.59 241.72 229.10 241.72 227.62L235.03 227.62L235.03 224.83C237.93 224.83 239.39 224.83 242.31 224.83C242.31 223.32 242.31 221.80 242.31 220.34ZM251.91 220.34C250.20 220.34 248.54 220.34 246.86 220.34L246.86 240C250.84 240 255.00 240 259.05 240C259.05 238.31 259.05 237.16 259.05 235.48L251.91 235.48C251.91 227.11 251.91 230.51 251.91 220.34ZM257.14 237.87L249.24 237.87L249.24 222.25L249.55 222.25C249.55 235.20 249.55 222.42 249.55 237.61L257.14 237.61Z" fill="#ed8c2b" style="" stroke="none" stroke-width="1px"></path></g><g id="SvgjsG4081" rel="mainfill" name="slogan_text" xmlns:name="slogan_text" transform="translate(62.74999463558197,-75.20124206542968)" fill="#ed8c2b" stroke="none" stroke-width="1px"><path d="M1.60 240L11.40 240L11.40 237.25L5.09 237.25L5.09 225.48L1.60 225.48ZM18.63 240.25C19.99 240.25 21.59 240.06 22.84 239.69L22.33 237.08C21.16 237.29 19.89 237.53 19.13 237.53C17.34 237.53 15.94 237.21 15.96 235.44L23.23 235.44L23.23 234.21C23.23 230.82 21.88 228.52 18.35 228.52C14.96 228.52 12.55 229.97 12.55 234.56C12.55 239.03 14.94 240.25 18.63 240.25ZM16.07 233.24C16.13 231.76 16.89 230.94 18.06 230.94C19.17 230.94 19.76 231.89 19.72 233.24ZM30.51 240.23C31.33 240.23 32.42 240.06 33.22 239.84L32.89 237.14C32.89 237.14 31.23 237.37 30.47 237.37C29.54 237.37 29.23 237.31 29.23 236.49L29.23 231.31L32.71 231.31L32.71 228.78L29.23 228.78L29.23 226.48L25.82 226.48L25.82 228.78L24.18 228.78L24.18 231.31L25.82 231.31L25.82 236.51C25.82 240.33 28.35 240.23 30.51 240.23ZM34.80 229.42L37.84 229.42L38.07 224.49L34.57 224.49ZM43.86 240.25C45.75 240.25 48.85 239.53 48.85 236.57C48.85 232.81 43.24 233.16 43.24 231.89C43.24 231.64 43.47 231.21 44.64 231.21C45.79 231.21 46.65 231.37 47.74 231.62L48.32 229.13C47.15 228.72 45.91 228.50 44.54 228.50C42.09 228.50 39.81 229.63 39.81 232.05C39.81 236.08 45.46 235.50 45.46 236.71C45.46 237.04 45.26 237.49 43.53 237.49C42.77 237.49 41.60 237.39 40.14 237.19L39.77 239.77C40.92 240.10 42.24 240.25 43.86 240.25ZM56.10 240L59.54 240L59.54 232.05C60.09 231.78 61.01 231.43 62.04 231.43C63.19 231.43 63.54 231.70 63.54 233.24L63.54 240L66.95 240L66.95 232.95C66.95 230.41 66.71 228.45 63.19 228.45C61.69 228.45 60.21 229.40 59.54 229.91L59.54 224.51L56.10 224.51ZM69.77 240L73.18 240L73.18 228.78L69.77 228.78ZM71.45 227.59L73.75 225.29L71.45 223.01L69.17 225.29ZM79.38 240.25C81.27 240.25 84.37 239.53 84.37 236.57C84.37 232.81 78.76 233.16 78.76 231.89C78.76 231.64 78.99 231.21 80.16 231.21C81.31 231.21 82.17 231.37 83.26 231.62L83.84 229.13C82.67 228.72 81.43 228.50 80.06 228.50C77.61 228.50 75.33 229.63 75.33 232.05C75.33 236.08 80.98 235.50 80.98 236.71C80.98 237.04 80.78 237.49 79.05 237.49C78.29 237.49 77.12 237.39 75.66 237.19L75.29 239.77C76.44 240.10 77.76 240.25 79.38 240.25ZM91.58 240.23C92.41 240.23 93.49 240.06 94.30 239.84L93.97 237.14C93.97 237.14 92.30 237.37 91.54 237.37C90.62 237.37 90.31 237.31 90.31 236.49L90.31 231.31L93.78 231.31L93.78 228.78L90.31 228.78L90.31 226.48L86.90 226.48L86.90 228.78L85.26 228.78L85.26 231.31L86.90 231.31L86.90 236.51C86.90 240.33 89.43 240.23 91.58 240.23ZM101.14 240.25C104.59 240.25 107.09 238.21 107.09 234.39C107.09 230.73 105.31 228.50 101.32 228.50C97.77 228.50 95.45 230.78 95.45 234.49C95.45 238.01 97.44 240.25 101.14 240.25ZM101.30 237.51C99.47 237.51 98.90 236.34 98.90 234.41C98.90 232.58 99.41 231.21 101.26 231.21C103.15 231.21 103.60 232.58 103.60 234.39C103.60 236.30 103.15 237.51 101.30 237.51ZM109.27 240L112.70 240L112.70 232.40C113.15 231.91 114.18 231.43 115.19 231.43C115.80 231.43 116.03 231.43 116.69 231.56L117.14 228.74C116.67 228.60 116.22 228.56 115.60 228.56C114.30 228.56 113.26 229.56 112.70 230.28L112.70 228.78L109.27 228.78ZM120.67 244.52L123.94 244.52L129.42 228.78L125.97 228.78L123.73 235.44L123.18 237.27L122.71 235.44L120.78 228.78L117.10 228.78L120.96 240L122.19 240Z" fill="#ed8c2b" style="" stroke="none" stroke-width="1px"></path></g><g id="SvgjsG4082" rel="mainfill" name="symbol" xmlns:name="symbol_mainfill" transform="translate(77.05999450683593,0) scale(0.2)" fill="#ed8c2b" stroke="none" stroke-width="1px"><g fill="#ed8c2b" stroke="none" stroke-width="1px"><g fill="#ed8c2b" stroke="none" stroke-width="1px"><path d="M504,432H8c-2.211,0-4-1.789-4-4V84c0-2.211,1.789-4,4-4h496c2.211,0,4,1.789,4,4v344C508,430.211,506.211,432,504,432z     M12,424h488V88H12V424z" fill="#ed8c2b" style="" stroke="none" stroke-width="1px"></path></g><g fill="#ed8c2b" stroke="none" stroke-width="1px"><g fill="#ed8c2b" stroke="none" stroke-width="1px"><path d="M504,72h-24c-2.211,0-4-1.789-4-4V20c0-2.211,1.789-4,4-4h24c2.211,0,4,1.789,4,4s-1.789,4-4,4h-20v40h20     c2.211,0,4,1.789,4,4S506.211,72,504,72z" fill="#ed8c2b" style="" stroke="none" stroke-width="1px"></path></g><g fill="#ed8c2b" stroke="none" stroke-width="1px"><path d="M432,72h-32c-2.211,0-4-1.789-4-4V20c0-2.211,1.789-4,4-4h32c2.211,0,4,1.789,4,4v48C436,70.211,434.211,72,432,72z      M404,64h24V24h-24V64z" fill="#ed8c2b" style="" stroke="none" stroke-width="1px"></path></g><g fill="#ed8c2b" stroke="none" stroke-width="1px"><path d="M352,72h-32c-2.211,0-4-1.789-4-4V20c0-2.211,1.789-4,4-4h32c2.211,0,4,1.789,4,4v48C356,70.211,354.211,72,352,72z      M324,64h24V24h-24V64z" fill="#ed8c2b" style="" stroke="none" stroke-width="1px"></path></g><g fill="#ed8c2b" stroke="none" stroke-width="1px"><path d="M272,72h-32c-2.211,0-4-1.789-4-4V20c0-2.211,1.789-4,4-4h32c2.211,0,4,1.789,4,4v48C276,70.211,274.211,72,272,72z      M244,64h24V24h-24V64z" fill="#ed8c2b" style="" stroke="none" stroke-width="1px"></path></g><g fill="#ed8c2b" stroke="none" stroke-width="1px"><path d="M192,72h-32c-2.211,0-4-1.789-4-4V20c0-2.211,1.789-4,4-4h32c2.211,0,4,1.789,4,4v48C196,70.211,194.211,72,192,72z      M164,64h24V24h-24V64z" fill="#ed8c2b" style="" stroke="none" stroke-width="1px"></path></g><g fill="#ed8c2b" stroke="none" stroke-width="1px"><path d="M112,72H80c-2.211,0-4-1.789-4-4V20c0-2.211,1.789-4,4-4h32c2.211,0,4,1.789,4,4v48C116,70.211,114.211,72,112,72z      M84,64h24V24H84V64z" fill="#ed8c2b" style="" stroke="none" stroke-width="1px"></path></g><g fill="#ed8c2b" stroke="none" stroke-width="1px"><path d="M32,72H8c-2.211,0-4-1.789-4-4s1.789-4,4-4h20V24H8c-2.211,0-4-1.789-4-4s1.789-4,4-4h24c2.211,0,4,1.789,4,4v48     C36,70.211,34.211,72,32,72z" fill="#ed8c2b" style="" stroke="none" stroke-width="1px"></path></g><g fill="#ed8c2b" stroke="none" stroke-width="1px"><path d="M504,8H8C5.789,8,4,6.211,4,4s1.789-4,4-4h496c2.211,0,4,1.789,4,4S506.211,8,504,8z" fill="#ed8c2b" style="" stroke="none" stroke-width="1px"></path></g></g><g fill="#ed8c2b" stroke="none" stroke-width="1px"><g fill="#ed8c2b" stroke="none" stroke-width="1px"><path d="M32,496H8c-2.211,0-4-1.789-4-4s1.789-4,4-4h20v-40H8c-2.211,0-4-1.789-4-4s1.789-4,4-4h24c2.211,0,4,1.789,4,4v48     C36,494.211,34.211,496,32,496z" fill="#ed8c2b" style="" stroke="none" stroke-width="1px"></path></g><g fill="#ed8c2b" stroke="none" stroke-width="1px"><path d="M112,496H80c-2.211,0-4-1.789-4-4v-48c0-2.211,1.789-4,4-4h32c2.211,0,4,1.789,4,4v48C116,494.211,114.211,496,112,496z      M84,488h24v-40H84V488z" fill="#ed8c2b" style="" stroke="none" stroke-width="1px"></path></g><g fill="#ed8c2b" stroke="none" stroke-width="1px"><path d="M192,496h-32c-2.211,0-4-1.789-4-4v-48c0-2.211,1.789-4,4-4h32c2.211,0,4,1.789,4,4v48C196,494.211,194.211,496,192,496z      M164,488h24v-40h-24V488z" fill="#ed8c2b" style="" stroke="none" stroke-width="1px"></path></g><g fill="#ed8c2b" stroke="none" stroke-width="1px"><path d="M272,496h-32c-2.211,0-4-1.789-4-4v-48c0-2.211,1.789-4,4-4h32c2.211,0,4,1.789,4,4v48C276,494.211,274.211,496,272,496z      M244,488h24v-40h-24V488z" fill="#ed8c2b" style="" stroke="none" stroke-width="1px"></path></g><g fill="#ed8c2b" stroke="none" stroke-width="1px"><path d="M352,496h-32c-2.211,0-4-1.789-4-4v-48c0-2.211,1.789-4,4-4h32c2.211,0,4,1.789,4,4v48C356,494.211,354.211,496,352,496z      M324,488h24v-40h-24V488z" fill="#ed8c2b" style="" stroke="none" stroke-width="1px"></path></g><g fill="#ed8c2b" stroke="none" stroke-width="1px"><path d="M432,496h-32c-2.211,0-4-1.789-4-4v-48c0-2.211,1.789-4,4-4h32c2.211,0,4,1.789,4,4v48C436,494.211,434.211,496,432,496z      M404,488h24v-40h-24V488z" fill="#ed8c2b" style="" stroke="none" stroke-width="1px"></path></g><g fill="#ed8c2b" stroke="none" stroke-width="1px"><path d="M504,496h-24c-2.211,0-4-1.789-4-4v-48c0-2.211,1.789-4,4-4h24c2.211,0,4,1.789,4,4s-1.789,4-4,4h-20v40h20     c2.211,0,4,1.789,4,4S506.211,496,504,496z" fill="#ed8c2b" style="" stroke="none" stroke-width="1px"></path></g><g fill="#ed8c2b" stroke="none" stroke-width="1px"><path d="M504,512H8c-2.211,0-4-1.789-4-4s1.789-4,4-4h496c2.211,0,4,1.789,4,4S506.211,512,504,512z" fill="#ed8c2b" style="" stroke="none" stroke-width="1px"></path></g></g><g fill="#ed8c2b" stroke="none" stroke-width="1px"><g fill="#ed8c2b" stroke="none" stroke-width="1px"><path d="M303.523,362.352c-0.68,0-1.359-0.172-1.984-0.523c-16.773-9.586-22.234-22.094-23.859-30.898     c-2.484-13.445,2.344-25.172,7.227-31.133c1.406-1.711,3.914-1.953,5.633-0.555c1.703,1.398,1.953,3.922,0.555,5.633     c-4.102,4.992-7.406,14.547-5.547,24.609c1.891,10.234,8.789,19.016,19.961,25.391c1.922,1.102,2.586,3.539,1.492,5.461     C306.258,361.625,304.906,362.352,303.523,362.352z" fill="#ed8c2b" style="" stroke="none" stroke-width="1px"></path></g><g fill="#ed8c2b" stroke="none" stroke-width="1px"><path d="M192,392h-16c-2.211,0-4-1.789-4-4v-88.016c0-2.211,1.789-4,4-4s4,1.789,4,4V384h10.898     c7.258-4.398,56.953-36.07,69.219-84.977c0.539-2.133,2.688-3.438,4.859-2.906c2.141,0.539,3.438,2.711,2.906,4.859     c-14.023,55.891-71.469,89.109-73.906,90.5C193.375,391.82,192.695,392,192,392z" fill="#ed8c2b" style="" stroke="none" stroke-width="1px"></path></g><g fill="#ed8c2b" stroke="none" stroke-width="1px"><path d="M152,328c-1.047,0-2.07-0.414-2.828-1.172l-8-8c-0.961-0.961-1.367-2.336-1.086-3.664l24-112     c0.469-2.172,2.641-3.469,4.75-3.078c2.164,0.469,3.539,2.594,3.078,4.75l-23.547,109.875l1.875,1.875l13.859-41.844     c0.539-1.641,2.07-2.742,3.797-2.742H192c2.211,0,4,1.789,4,4v16c0,2.211-1.789,4-4,4s-4-1.789-4-4v-12h-17.211l-14.992,45.258     c-0.438,1.32-1.523,2.312-2.875,2.633C152.617,327.961,152.305,328,152,328z" fill="#ed8c2b" style="" stroke="none" stroke-width="1px"></path></g><g fill="#ed8c2b" stroke="none" stroke-width="1px"><path d="M368,392c-0.633,0-1.273-0.148-1.867-0.461c-66.141-34.883-62.547-86.883-62.359-89.078     c0.18-2.195,1.992-3.766,4.312-3.648c2.195,0.18,3.828,2.109,3.656,4.312c-0.148,1.953-3.047,47.703,55.531,79.945l3.203-3.203     c-9.32-10.805-38.594-49.531-19.711-90.922c27.117-59.43,21.273-115.586-15.25-146.57     c-39.633-33.594-104.211-28.023-169.359,14.352l32.031,34.203c1.508,1.609,1.422,4.141-0.188,5.656     c-1.609,1.508-4.141,1.438-5.656-0.188l-35.266-37.664c-0.797-0.859-1.188-2.023-1.055-3.188s0.773-2.211,1.742-2.867     c69.57-46.805,139.664-53.086,182.922-16.398c39.375,33.391,46.023,93.164,17.359,155.984     c-19.867,43.555,20.375,84.5,20.781,84.906c0.75,0.75,1.172,1.766,1.172,2.828s-0.422,2.078-1.172,2.828l-8,8     C370.062,391.594,369.039,392,368,392z" fill="#ed8c2b" style="" stroke="none" stroke-width="1px"></path></g><g fill="#ed8c2b" stroke="none" stroke-width="1px"><path d="M192,296h-8c-2.211,0-4-1.789-4-4s1.789-4,4-4h8c2.211,0,4,1.789,4,4S194.211,296,192,296z" fill="#ed8c2b" style="" stroke="none" stroke-width="1px"></path></g><g fill="#ed8c2b" stroke="none" stroke-width="1px"><path d="M176,303.984c-2.211,0-4-1.789-4-4c0-6.609,5.383-11.984,12-11.984c2.211,0,4,1.789,4,4s-1.789,4-4,4     c-2.203,0-4,1.789-4,3.984C180,302.195,178.211,303.984,176,303.984z" fill="#ed8c2b" style="" stroke="none" stroke-width="1px"></path></g><g fill="#ed8c2b" stroke="none" stroke-width="1px"><path d="M264,304c-0.648,0-1.305-0.156-1.914-0.492c-51.453-28.07-99.789-93.617-98.055-100.422     c0.453-1.773,2.141-3.086,3.969-3.086c2.117,0,3.844,1.641,3.992,3.719c3.969,8.211,45.32,66.25,93.922,92.773     c1.938,1.055,2.656,3.484,1.594,5.422C266.781,303.25,265.414,304,264,304z" fill="#ed8c2b" style="" stroke="none" stroke-width="1px"></path></g><g fill="#ed8c2b" stroke="none" stroke-width="1px"><path d="M296.867,362.742c-7.539,0-19.359-1.312-27.633-8.484C263.109,348.945,260,341.453,260,332c0-2.211,1.789-4,4-4     s4,1.789,4,4c0,7.133,2.117,12.438,6.477,16.211c10.016,8.695,28.289,6.195,28.484,6.18c2.141-0.266,4.211,1.203,4.523,3.398     c0.312,2.18-1.211,4.211-3.398,4.523C303.773,362.359,300.945,362.742,296.867,362.742z" fill="#ed8c2b" style="" stroke="none" stroke-width="1px"></path></g><g fill="#ed8c2b" stroke="none" stroke-width="1px"><path d="M288,306.336c-0.945,0-1.883-0.328-2.648-1c-1.656-1.461-1.812-3.992-0.352-5.648c9.672-10.961,15-25.055,15-39.688     c0-33.086-26.914-60-60-60c-17.211,0-33.609,7.406-45,20.312c-1.469,1.648-3.984,1.812-5.648,0.352     c-1.656-1.461-1.812-3.992-0.352-5.648C201.906,200.391,220.5,192,240,192c37.492,0,68,30.508,68,68     c0,16.578-6.039,32.555-17,44.984C290.211,305.875,289.109,306.336,288,306.336z" fill="#ed8c2b" style="" stroke="none" stroke-width="1px"></path></g><g fill="#ed8c2b" stroke="none" stroke-width="1px"><path d="M307.641,306.75c-0.734,0-1.477-0.203-2.141-0.617c-1.867-1.188-2.422-3.656-1.242-5.523     C311.938,288.477,316,274.438,316,260c0-41.906-34.094-76-76-76c-15.234,0-29.93,4.484-42.492,12.977     c-1.82,1.25-4.312,0.758-5.555-1.07c-1.242-1.836-0.758-4.32,1.07-5.555C206.914,180.961,223.156,176,240,176     c46.32,0,84,37.68,84,84c0,15.953-4.484,31.477-12.977,44.891C310.258,306.094,308.961,306.75,307.641,306.75z" fill="#ed8c2b" style="" stroke="none" stroke-width="1px"></path></g></g></g></g></svg>